<?xml version="1.0" standalone="no"?>
<!DOCTYPE svg PUBLIC "-//W3C//DTD SVG 1.1//EN" "http://www.w3.org/Graphics/SVG/1.1/DTD/svg11.dtd" >
<svg xmlns="http://www.w3.org/2000/svg">
<metadata></metadata>
<defs>
<font id="SFAtarianSystemExtendedRg" horiz-adv-x="1382" >
<font-face units-per-em="2048" ascent="1638" descent="-410" />
<missing-glyph horiz-adv-x="768" />
<glyph horiz-adv-x="0" />
<glyph horiz-adv-x="2048" />
<glyph unicode="&#xd;" horiz-adv-x="768" />
<glyph unicode=" "  horiz-adv-x="768" />
<glyph unicode="&#x09;" horiz-adv-x="768" />
<glyph unicode="&#xa0;" horiz-adv-x="768" />
<glyph unicode="!" horiz-adv-x="563" d="M128 0v205h307v-205h-307zM128 290v1075h307v-1075h-307z" />
<glyph unicode="&#x22;" horiz-adv-x="972" d="M128 956v68l154 137h-154v204h307v-204zM538 956v68l153 137h-153v204h307v-204z" />
<glyph unicode="#" horiz-adv-x="1365" d="M85 242v953q0 67 52 118.5t119 51.5h205v-193q0 -346 -53 -534q-85 -304 -323 -396zM131 53q265 113 367 439q68 222 69 593q0 51 -4 280h34v-1365h-341q-72 0 -125 53zM768 0v1365h34q-2 -200 -2 -274q0 -374 69 -596q100 -329 365 -442q-53 -53 -125 -53h-341z M905 1212v153h204q68 0 119.5 -51t51.5 -119v-951q-244 94 -326 413q-49 188 -49 555z" />
<glyph unicode="$" horiz-adv-x="1157" d="M128 437h246q12 -63 74.5 -99.5t135 -37t136 45t63.5 112.5t-68 105t-136 38q-162 0 -296 82q-155 94 -155 245q0 108 103.5 184.5t224.5 104.5v148h245v-148q121 -26 222 -103t106 -186h-246q-12 63 -74 100t-134.5 37t-137 -45.5t-64 -112.5t68.5 -104.5t137 -37.5 q162 0 295 -82q155 -94 155 -246q0 -108 -103.5 -185.5t-224.5 -103.5v-148h-245v148q-121 26 -222 103t-106 186z" />
<glyph unicode="%" horiz-adv-x="2373" d="M128 915v150q0 137 164 225q138 75 287 75q148 0 286 -75q164 -89 164 -225v-150q0 -137 -164 -226q-138 -75 -286 -75t-287 75q-164 89 -164 226zM374 915q0 -61 68 -99t137 -38q68 0 136 38t68 99v150q0 61 -68 98.5t-136 37.5t-136.5 -37.5t-68.5 -98.5v-150zM604 -84 l876 1603l290 -70l-876 -1603zM1345 300v151q0 137 162 225q138 75 287.5 75t287.5 -75q164 -89 164 -225v-151q0 -137 -164 -225q-138 -75 -287 -75t-299.5 82t-150.5 218zM1591 300q0 -61 68 -98.5t135.5 -37.5t136.5 37.5t69 98.5v151q0 61 -69 98.5t-136.5 37.5 t-135.5 -37.5t-68 -98.5v-151z" />
<glyph unicode="&#x26;" horiz-adv-x="1157" d="M128 437q0 152 145 246q-145 92 -145 245q0 108 103.5 185.5t224.5 103.5v148h245v-148q121 -26 222 -103t106 -186h-246q-12 63 -74 100t-130 37t-136.5 -37.5t-68.5 -105t64 -113t141 -44.5h102v-164q-307 0 -307 -137q0 -73 64 -118.5t136.5 -45.5t134.5 37t74 100 h246q-3 -109 -104.5 -186t-223.5 -103v-148h-245v148q-121 26 -224.5 103t-103.5 186z" />
<glyph unicode="'" horiz-adv-x="563" d="M128 956v68l154 137h-154v204h307v-204z" />
<glyph unicode="(" horiz-adv-x="819" d="M128 683q0 469 358 853h205q-282 -396 -281 -853q-1 -458 281 -854h-205q-358 384 -358 854z" />
<glyph unicode=")" horiz-adv-x="819" d="M128 -171q282 396 282 854q0 457 -282 853h205q358 -384 358 -853t-358 -854h-205z" />
<glyph unicode="*" horiz-adv-x="1774" d="M85 0v205q346 -3 488 310q97 218 98 617q0 109 -5 233h102v-426q0 -375 -147 -630q-179 -311 -525 -309h-11zM802 0v1365h171v-1365h-171zM1007 939v426h102v-172q0 -427 87 -649q137 -346 494 -339v-205h-11q-350 0 -527 309q-145 251 -145 630z" />
<glyph unicode="+" horiz-adv-x="1024" d="M128 597v171h256v171h256v-171h256v-171h-256v-170h-256v170h-256z" />
<glyph unicode="," horiz-adv-x="563" d="M128 0v205h307v-205l-307 -205v68l154 137h-154z" />
<glyph unicode="-" horiz-adv-x="1024" d="M128 597v171h768v-171h-768z" />
<glyph unicode="." horiz-adv-x="563" d="M128 0v205h307v-205h-307z" />
<glyph unicode="/" horiz-adv-x="1165" d="M0 -84l876 1603l288 -70l-876 -1603z" />
<glyph unicode="0" horiz-adv-x="1254" d="M65 375v615q0 171 203 281q172 94 359 94t359 -94q205 -111 205 -281v-615q0 -171 -205 -281q-172 -94 -359 -94t-359 94q-203 111 -203 281zM372 375q0 -79 86 -125q168 -90 332 -3q94 49 94 128v615q0 79 -94 128q-79 43 -163.5 43t-169.5 -46t-85 -125v-615z" />
<glyph unicode="1" horiz-adv-x="563" d="M128 0v1365h307v-1365h-307z" />
<glyph unicode="2" d="M128 0v290q0 191 212 312q26 14 396 164q212 87 211 190v34q0 79 -85.5 125t-171.5 46t-160.5 -45.5t-94.5 -125.5h-307q14 172 208 281q166 94 353.5 94t360.5 -94q205 -111 204 -281v-34q0 -191 -211 -313q-26 -15 -396 -163q-212 -87 -212 -190v-85h819v-205h-1126z " />
<glyph unicode="3" d="M128 375h307q14 -79 91.5 -125t169.5 -45.5t172 56t79.5 142t-86 132.5t-170.5 45h-128v205h128q97 0 177 55.5t79.5 142t-86 132.5t-171.5 46t-164 -46t-91 -125h-307q7 172 207 281q169 94 355.5 94t359.5 -94q205 -111 204 -281v-34q0 -159 -182 -273 q182 -117 182 -298t-204 -291q-172 -94 -359.5 -94t-355.5 94q-200 109 -207 281z" />
<glyph unicode="4" horiz-adv-x="1433" d="M128 768v597h307v-614q0 -111 234 -179q142 -41 329 -60v853h308v-1365h-308v307q-870 119 -870 461z" />
<glyph unicode="5" d="M128 375h307q12 -79 91.5 -125t164.5 -45q85 0 170.5 45.5t85.5 124.5v188q0 79 -85.5 125t-170.5 46t-164.5 -46t-91.5 -125h-307l51 802h947v-204h-665l-26 -265q123 43 256 43q186 0 359 -94q205 -111 204 -282v-188q0 -171 -204 -281q-172 -94 -359.5 -94t-355.5 94 q-200 109 -207 281z" />
<glyph unicode="6" d="M128 375v615q0 171 205 281q172 94 359 94t356 -94q196 -109 206 -281h-307q-15 79 -92 125t-163 46t-171.5 -46t-85.5 -125v-179q123 43 256 42q186 0 359 -94q205 -111 204 -281v-103q0 -171 -204 -281q-172 -94 -359 -94q-186 0 -358 94q-205 111 -205 281zM435 375 q0 -79 85.5 -125t170.5 -45q85 0 170.5 45.5t85.5 124.5v103q0 79 -85.5 125t-170.5 46t-170.5 -46t-85.5 -125v-103z" />
<glyph unicode="7" horiz-adv-x="1223" d="M128 1161v204h819q70 0 135 -34q79 -39 79 -102q0 -32 -21 -68l-654 -1161h-307l654 1161h-705z" />
<glyph unicode="8" d="M128 375v35q0 157 188 273q-188 116 -188 297t205 291q172 94 358 94t359 -94q205 -111 204 -281v-34q0 -157 -186 -273q186 -117 186 -298t-204 -291q-172 -94 -359 -94q-186 0 -358 94q-205 111 -205 281zM435 403.5q0 -85.5 79.5 -142t176 -56.5t176.5 56.5t80 142 t-85.5 131.5t-170.5 45q-85 0 -170.5 -45.5t-85.5 -131zM435 962.5q0 -85.5 85.5 -131.5t170.5 -46t170.5 46t85.5 131.5t-79 142t-176 56.5t-177 -56.5t-80 -142z" />
<glyph unicode="9" d="M128 375h307q15 -79 92 -125t163 -45.5t171.5 46t85.5 124.5v180q-123 -43 -256 -43q-186 0 -358 94q-205 111 -205 281v103q0 171 205 281q172 94 358 94t359 -94q205 -111 204 -281v-615q0 -171 -204 -281q-172 -94 -359.5 -94t-355.5 94q-196 109 -207 281zM435 887 q0 -79 85.5 -125t170.5 -45q85 0 170.5 45.5t85.5 124.5v103q0 79 -85.5 125t-170.5 46t-170.5 -46t-85.5 -125v-103z" />
<glyph unicode=":" horiz-adv-x="563" d="M128 0v205h307v-205h-307zM128 819v205h307v-205h-307z" />
<glyph unicode=";" horiz-adv-x="563" d="M128 0v205h307v-205l-307 -205v68l154 137h-154zM128 819v205h307v-205h-307z" />
<glyph unicode="&#x3c;" horiz-adv-x="947" d="M128 683q0 60 44 128q41 56 84 111l205 273h358l-384 -512l384 -512h-358l-205 273q-43 55 -84 111q-44 68 -44 128z" />
<glyph unicode="=" horiz-adv-x="1280" d="M128 427v170h1024v-170h-1024zM128 768v171h1024v-171h-1024z" />
<glyph unicode="&#x3e;" horiz-adv-x="947" d="M128 171l384 512l-384 512h358l205 -273q43 -55 84 -111q44 -68 44 -128t-44 -128q-41 -56 -84 -111l-205 -273h-358z" />
<glyph unicode="?" d="M128 0v205h307v-205h-307zM128 290v512h307q12 -79 91.5 -125t164.5 -46t170.5 46t85.5 125v188q0 79 -85.5 125t-170.5 46t-164.5 -46t-91.5 -125h-307q5 172 207 281q169 94 355.5 94t359.5 -94q205 -111 204 -281v-188q0 -171 -204 -281q-172 -94 -359 -94 q-133 0 -256 42v-179h-307z" />
<glyph unicode="@" horiz-adv-x="1223" d="M60 0l104 370q12 43 44.5 43t44.5 -43l102 -370h-63l-26 94h-116l-27 -94h-63zM85 469v133q384 -3 384 613q0 63 -3 150h68v-280q0 -259 -92 -418q-116 -200 -357 -198zM167 155h80l-40 144zM299 352v61h227v-61h-82v-352h-63v352h-82zM469 0l104 370q12 43 44 43t43 -43 l106 -370h-65l-25 94h-116l-26 -94h-65zM556 469v896h111v-896h-111zM577 155h80l-39 144zM691 1085v280h67q0 -340 44 -489q84 -290 336 -274v-133h-8q-227 0 -345 205q-94 166 -94 411zM782 0v370q0 43 41 43h82q44 0 79 -32.5t35 -76.5q0 -94 -103 -127l113 -177h-73 q-32 41 -67.5 90t-35.5 84t51.5 63.5t51.5 61.5q0 53 -51 53h-62v-352h-61zM1051 0v413h62v-413h-62z" />
<glyph unicode="A" horiz-adv-x="1344" d="M-65 0l521 1229q26 63 87 99.5t130 36.5t130.5 -36.5t87.5 -99.5l517 -1229h-321l-126 307h-574l-131 -307h-321zM473 512h399l-200 474z" />
<glyph unicode="B" horiz-adv-x="1447" d="M128 137v1092q0 61 68 98.5t137 37.5h358q184 0 355 -87q208 -106 208 -280t-228 -281q137 -36 246.5 -127.5t109.5 -214.5q0 -171 -204 -281q-172 -94 -359 -94h-486q-68 0 -136.5 37.5t-68.5 99.5zM435 205h384q85 0 170.5 45.5t85.5 124.5t-85.5 125t-170.5 46h-384 v-341zM435 751q512 51 512 239q0 79 -85.5 125t-170.5 46h-256v-410z" />
<glyph unicode="C" d="M128 375v615q0 171 205 281q172 94 359 94t356 -94q198 -109 206 -281h-307q-14 79 -91.5 125t-163.5 46t-171.5 -46t-85.5 -125v-615q-1 -79 85 -125q85 -46 170 -46h2q86 0 164 46t91 125h307q-7 -172 -206 -281q-169 -94 -356 -94t-359 94q-205 111 -205 281z" />
<glyph unicode="D" d="M128 0v1365h563q186 0 359 -94q205 -111 204 -281v-615q0 -171 -204 -281q-172 -94 -359 -94h-563zM435 205h256q85 0 170.5 45.5t85.5 124.5v615q0 79 -85.5 125t-170.5 46h-256v-956z" />
<glyph unicode="E" horiz-adv-x="1254" d="M128 137v1092q0 61 68 98.5t137 37.5h793v-204h-691v-376h435v-205h-435v-375h691v-205h-793q-68 0 -136.5 37.5t-68.5 99.5z" />
<glyph unicode="F" horiz-adv-x="1191" d="M128 0v1229q0 61 68 98.5t137 37.5h793v-204h-691v-376h435v-205h-435v-580h-307z" />
<glyph unicode="G" d="M128 375v615q0 171 205 281q172 94 359 94t356 -94q200 -109 206 -281h-307q-14 79 -92 125t-164 46q-85 0 -170.5 -46t-85.5 -125v-615q0 -79 85 -125q84 -45 167 -45h4q85 0 170.5 45.5t85.5 124.5v205h-256v205h359q68 0 136 -37.5t68 -98.5v-649h-307v43 q-123 -43 -256 -43q-186 0 -358 94q-205 111 -205 281z" />
<glyph unicode="H" d="M128 0v1365h307v-580h512v580h307v-1365h-307v580h-512v-580h-307z" />
<glyph unicode="I" horiz-adv-x="563" d="M128 0v1365h307v-1365h-307z" />
<glyph unicode="J" horiz-adv-x="1317" d="M65 375v137h307v-137q0 -79 86 -125q85 -46 170 -46q81 0 162 43q94 49 94 128v990h307v-990q0 -171 -205 -281q-172 -94 -359 -94t-359 94q-203 111 -203 281z" />
<glyph unicode="K" horiz-adv-x="1319" d="M128 0v1365h307v-1365h-307zM461 685.5q0 35.5 25.5 73.5t51.5 72l384 534h332l-486 -682l486 -683h-332l-384 548q-24 31 -50 63q-27 39 -27 74.5z" />
<glyph unicode="L" horiz-adv-x="1191" d="M128 137v1228h307v-1160h691v-205h-793q-68 0 -136.5 37.5t-68.5 99.5z" />
<glyph unicode="M" horiz-adv-x="1971" d="M128 0v1229q0 61 63 98.5t128 37.5q128 0 200 -136l467 -867l466 867q71 136 198 136h2q65 0 128 -37.5t63 -98.5v-1229h-307v777l-345 -640q-75 -137 -205.5 -137t-205.5 137l-345 640v-777h-307z" />
<glyph unicode="N" d="M128 0v1229q0 61 63 98.5t128 37.5q116 0 200 -136l428 -691v827h307v-1228q0 -61 -63 -99t-128 -38q-116 0 -199 137l-429 691v-828h-307z" />
<glyph unicode="O" horiz-adv-x="1254" d="M65 375v615q0 171 203 281q172 94 359 94t359 -94q205 -111 205 -281v-615q0 -171 -205 -281q-172 -94 -359 -94t-359 94q-203 111 -203 281zM372 375q0 -79 86 -125q85 -46 170 -46q82 0 162 43q94 49 94 128v615q0 79 -94 128q-79 43 -163.5 43t-169.5 -46t-85 -125 v-615z" />
<glyph unicode="P" horiz-adv-x="1433" d="M128 0v1229q0 63 75 102q61 34 130 34h409q184 0 355 -87q209 -105 209 -271q0 -338 -871 -461v-546h-307zM435 751q563 60 563 239q0 79 -85.5 125t-170.5 46h-307v-410z" />
<glyph unicode="Q" horiz-adv-x="1305" d="M65 375v615q0 171 203 281q172 94 359 94t359 -94q205 -111 205 -281v-615q0 -150 -167 -262l217 -48l-94 -195l-640 139q-176 38 -290 114q-152 102 -152 252zM372 375q0 -79 86 -125q85 -46 170 -46q81 0 162 43q94 49 94 128v615q0 79 -94 128q-79 43 -163.5 43 t-169.5 -46t-85 -125v-615z" />
<glyph unicode="R" horiz-adv-x="1421" d="M128 0v1229q0 61 68 98.5t137 37.5h409q184 0 355 -87q209 -106 208 -269q0 -162 -177 -285q-142 -97 -324 -135l553 -589h-359l-421 442q-90 94 -91 143q0 94 98 145q5 2 179 64q235 82 235 195q0 80 -85.5 126t-170.5 46h-307v-1161h-307z" />
<glyph unicode="S" d="M128 375h307q15 -79 92 -125q76 -46 167 -46h2q92 0 172 56q80 55 80 141q0 87 -86 134q-84 45 -167 45h-4q-186 0 -358 94q-205 111 -205 282v34q0 171 205 281q172 94 359 94t356 -94q198 -109 206 -281h-307q-15 79 -92 125t-169 46t-171.5 -55.5t-79.5 -142 t85.5 -132.5t170.5 -46q186 0 359 -94q205 -111 204 -281v-35q0 -171 -204 -281q-172 -94 -359.5 -94t-355.5 94q-198 109 -207 281z" />
<glyph unicode="T" horiz-adv-x="1177" d="M26 1161v204h1126v-204h-410v-1161h-307v1161h-409z" />
<glyph unicode="U" d="M128 375v990h307v-990q-1 -79 85 -125q84 -45 167 -45h4q85 0 170.5 45.5t85.5 124.5v990h307v-990q0 -171 -204 -281q-172 -94 -359 -94q-186 0 -358 94q-205 111 -205 281z" />
<glyph unicode="V" horiz-adv-x="1344" d="M-65 1365h321l416 -986l415 986h321l-517 -1228q-26 -63 -87.5 -100t-130.5 -37t-130.5 36.5t-86.5 100.5z" />
<glyph unicode="W" horiz-adv-x="2290" d="M-65 1365h321l416 -986l258 850q19 63 82.5 99.5t134.5 36.5q70 0 134 -36.5t83 -99.5l257 -850l415 986h319l-517 -1228q-26 -63 -87 -100t-131.5 -37t-129.5 36q-68 38 -87 101l-256 849l-256 -849q-19 -63 -83 -100t-134 -37t-131.5 36.5t-86.5 100.5z" />
<glyph unicode="X" d="M0 0l512 683l-512 682h358l333 -443l333 443h358l-512 -682l512 -683h-358l-333 444l-333 -444h-358z" />
<glyph unicode="Y" horiz-adv-x="1254" d="M-65 1365h360l331 -443l335 443h357l-538 -716v-649h-307v649z" />
<glyph unicode="Z" d="M128 137q0 41 20 68l702 956h-722v204h913q70 0 135 -34q78 -39 78 -100q0 -43 -20 -70l-702 -956h722v-205h-913q-70 0 -134 34q-79 39 -79 103z" />
<glyph unicode="[" horiz-adv-x="819" d="M128 -34v1433q0 61 68 99t137 38h358v-205h-256v-1297h256v-205h-358q-68 0 -136.5 37.5t-68.5 99.5z" />
<glyph unicode="\" horiz-adv-x="1163" d="M0 1449l288 70l876 -1603l-288 -70z" />
<glyph unicode="]" horiz-adv-x="819" d="M128 34h256v1297h-256v205h358q68 0 136.5 -37.5t68.5 -99.5v-1433q0 -61 -68 -99t-137 -38h-358v205z" />
<glyph unicode="_" horiz-adv-x="1280" d="M-51 -85h1382v-171h-1382v171z" />
<glyph unicode="a" horiz-adv-x="1049" d="M-65 0l415 983q46 109 175 109t175 -109l414 -983h-257l-101 246h-459l-104 -246h-258zM365 410h321l-160 378z" />
<glyph unicode="b" horiz-adv-x="1196" d="M128 109v874q0 49 54.5 79t109.5 30h287q147 0 285 -70q166 -84 166 -223q0 -140 -182 -226q108 -29 188 -93q96 -81 96 -180q0 -137 -164 -225q-138 -75 -287 -75h-389q-55 0 -109.5 29.5t-54.5 79.5zM374 164h307q68 0 136.5 37.5t68.5 98.5t-68.5 99t-136.5 38h-307 v-273zM374 601q409 41 409 191q0 61 -68 98.5t-136 37.5h-205v-327z" />
<glyph unicode="c" horiz-adv-x="1157" d="M128 300v492q0 137 164 225q138 75 287.5 75t284.5 -75q159 -87 165 -225h-246q-12 63 -73 99.5t-130 36.5t-137.5 -37.5t-68.5 -98.5v-492q0 -61 68 -98.5t137.5 -37.5t131 36.5t72.5 99.5h246q-5 -138 -164 -225q-137 -75 -285.5 -75t-287.5 75q-164 89 -164 225z" />
<glyph unicode="d" horiz-adv-x="1157" d="M128 0v1092h451q148 0 286 -75q164 -89 164 -225v-492q0 -137 -164 -225q-138 -75 -286 -75h-451zM374 164h205q68 0 136 37.5t68 98.5v492q0 61 -68 98.5t-136 37.5h-205v-764z" />
<glyph unicode="e" horiz-adv-x="1054" d="M128 109v874q0 49 54.5 79t109.5 30h635v-164h-553v-300h348v-164h-348v-300h553v-164h-635q-55 0 -109.5 29.5t-54.5 79.5z" />
<glyph unicode="f" horiz-adv-x="991" d="M128 0v983q0 49 54.5 79t109.5 30h635v-164h-553v-300h348v-164h-348v-464h-246z" />
<glyph unicode="g" horiz-adv-x="1157" d="M128 300v492q0 137 164 225q138 75 287.5 75t284.5 -75q160 -87 165 -225h-246q-10 63 -73 99.5t-131 36.5t-136.5 -37.5t-68.5 -98.5v-492q0 -61 68 -98.5t137 -37.5q68 0 136 37.5t68 98.5v164h-204v164h286q55 0 109.5 -29.5t54.5 -79.5v-519h-246v34 q-97 -34 -224.5 -34t-266.5 75q-164 89 -164 225z" />
<glyph unicode="h" horiz-adv-x="1157" d="M128 0v1092h246v-464h409v464h246v-1092h-246v464h-409v-464h-246z" />
<glyph unicode="i" horiz-adv-x="501" d="M128 0v1092h246v-1092h-246z" />
<glyph unicode="j" horiz-adv-x="1092" d="M65 300v110h246v-110q0 -61 68 -98.5t135.5 -37.5t135.5 37.5t69 98.5v792h245v-792q0 -137 -162 -225q-138 -75 -287.5 -75t-287.5 75q-162 89 -162 225z" />
<glyph unicode="k" horiz-adv-x="1093" d="M128 0v1092h246v-1092h-246zM394 550q0 30 62 116l307 426h266l-389 -546l389 -546h-266l-307 439q-19 26 -40 49q-22 32 -22 62z" />
<glyph unicode="l" horiz-adv-x="991" d="M128 109v983h246v-928h553v-164h-635q-55 0 -109.5 29.5t-54.5 79.5z" />
<glyph unicode="m" horiz-adv-x="1628" d="M128 0v983q0 49 50.5 79t103.5 30q99 0 158 -109l374 -693l374 693q60 109 159 109q53 0 103.5 -29.5t49.5 -79.5v-983h-246v621l-276 -512q-60 -109 -164 -109t-164 109l-276 512v-621h-246z" />
<glyph unicode="n" horiz-adv-x="1157" d="M128 0v983q0 49 50.5 79t103.5 30q90 0 158 -109l343 -553v662h246v-983q0 -49 -50 -79t-103 -30q-90 0 -159 109l-343 553v-662h-246z" />
<glyph unicode="o" horiz-adv-x="1029" d="M65 300v492q0 137 162 225q138 75 287 75t299.5 -82t150.5 -218v-492q0 -137 -162 -225q-138 -75 -287.5 -75t-287.5 75q-162 89 -162 225zM311 300q0 -61 68 -98.5t135.5 -37.5t136 37.5t68.5 98.5v492q0 61 -68.5 98.5t-136 37.5t-135.5 -37.5t-68 -98.5v-492z" />
<glyph unicode="p" horiz-adv-x="1134" d="M128 0v983q0 49 54.5 79t109.5 30h328q147 0 285 -70q165 -83 165 -216q0 -271 -696 -369v-437h-246zM374 601q450 46 450 191q0 61 -68 98.5t-136 37.5h-246v-327z" />
<glyph unicode="q" horiz-adv-x="1070" d="M65 300v492q0 137 162 225q138 75 287 75t299.5 -82t150.5 -218v-492q0 -119 -131 -210l174 -39l-77 -155l-512 111q-137 29 -230 94q-123 84 -123 199zM311 300q0 -61 68 -98.5t135.5 -37.5t136 37.5t68.5 98.5v492q0 61 -68.5 98.5t-136 37.5t-135.5 -37.5t-68 -98.5 v-492z" />
<glyph unicode="r" horiz-adv-x="1175" d="M128 0v983q0 49 54.5 79t109.5 30h328q147 0 285 -70q166 -85 166 -214q0 -130 -143 -228q-113 -79 -259 -109l442 -471h-287l-338 353q-72 75 -71 115q0 77 106 126q99 38 198 77q106 48 106 114q0 67 -69 105q-68 38 -136 38h-246v-928h-246z" />
<glyph unicode="s" horiz-adv-x="1157" d="M128 300h246q12 -63 73.5 -99.5t135 -36.5t137 45t63.5 112.5t-68 105t-136 37.5q-162 0 -296 82q-155 94 -155 238.5t164 232.5q138 75 287.5 75t284.5 -75q159 -87 165 -225h-246q-12 63 -73 99.5t-134.5 36.5t-137.5 -45t-65 -111q0 -68 69 -106q68 -38 137 -38 q162 0 295 -82q155 -94 155 -238.5t-164 -232.5q-138 -75 -287 -75t-284 75q-159 87 -166 225z" />
<glyph unicode="t" horiz-adv-x="952" d="M26 928v164h901v-164h-328v-928h-246v928h-327z" />
<glyph unicode="u" horiz-adv-x="1157" d="M128 300v792h246v-792q0 -61 68 -98.5t137 -37.5q68 0 136 37.5t68 98.5v792h246v-792q0 -137 -164 -225q-138 -75 -286 -75t-287 75q-164 89 -164 225z" />
<glyph unicode="v" horiz-adv-x="1049" d="M-65 1092h258l333 -788l331 788h257l-414 -983q-46 -109 -175 -109t-175 109z" />
<glyph unicode="w" horiz-adv-x="1807" d="M-65 1092h258l333 -788l204 679q14 49 66 79t107.5 30t108 -29.5t67.5 -79.5l204 -679l333 788h255l-415 -983q-44 -109 -173 -109q-56 0 -108 29.5t-66 79.5l-206 679l-203 -679q-15 -49 -67.5 -79t-106.5 -30q-130 0 -176 109z" />
<glyph unicode="x" horiz-adv-x="1105" d="M0 0l410 546l-410 546h287l266 -355l266 355h287l-410 -546l410 -546h-287l-266 355l-266 -355h-287z" />
<glyph unicode="y" horiz-adv-x="977" d="M-65 1092h289l264 -355l268 355h285l-430 -573v-519h-246v519z" />
<glyph unicode="z" horiz-adv-x="1157" d="M128 101q0 42 15 63l564 764h-579v164h732q55 0 112 -29.5t57 -71.5t-15 -63l-563 -764h578v-164h-732q-55 0 -112 29.5t-57 71.5z" />
<glyph unicode="{" horiz-adv-x="819" d="M128 -34v1433q0 61 68 99t137 38h358v-205h-256v-1297h256v-205h-358q-68 0 -136.5 37.5t-68.5 99.5z" />
<glyph unicode="|" horiz-adv-x="563" d="M128 -171v1707h307v-1707h-307z" />
<glyph unicode="}" horiz-adv-x="819" d="M128 34h256v1297h-256v205h358q68 0 136.5 -37.5t68.5 -99.5v-1433q0 -61 -68 -99t-137 -38h-358v205z" />
<glyph unicode="&#xa1;" horiz-adv-x="563" d="M128 0v1075h307v-1075h-307zM128 1161v204h307v-204h-307z" />
<glyph unicode="&#xa2;" horiz-adv-x="1157" d="M128 778v150q0 108 103.5 184.5t224.5 104.5v148h245v-148q121 -26 222 -103t106 -186h-246q-10 63 -73 100t-131 37t-136.5 -37.5t-68.5 -99.5v-150q0 -61 68 -98.5t137 -37.5q68 0 131.5 36.5t72.5 99.5h246q-3 -109 -104.5 -186t-223.5 -102v-149h-245v149 q-121 26 -224.5 102.5t-103.5 185.5z" />
<glyph unicode="&#xad;" horiz-adv-x="1024" d="M128 597v171h768v-171h-768z" />
<glyph unicode="&#xbf;" d="M128 375v188q0 171 205 282q172 94 358 94q133 0 256 -43v179h307v-512h-307q-12 79 -91 125t-165 46q-85 0 -170.5 -46t-85.5 -125v-188q0 -79 85.5 -125t170.5 -45q85 0 165 45.5t91 124.5h307q-5 -172 -206 -281q-169 -94 -356 -94t-359 94q-205 111 -205 281z M947 1161v204h307v-204h-307z" />
<glyph unicode="&#x2000;" horiz-adv-x="768" />
<glyph unicode="&#x2001;" horiz-adv-x="1536" />
<glyph unicode="&#x2002;" horiz-adv-x="768" />
<glyph unicode="&#x2003;" horiz-adv-x="1536" />
<glyph unicode="&#x2004;" horiz-adv-x="512" />
<glyph unicode="&#x2005;" horiz-adv-x="384" />
<glyph unicode="&#x2006;" horiz-adv-x="256" />
<glyph unicode="&#x2007;" horiz-adv-x="256" />
<glyph unicode="&#x2008;" horiz-adv-x="192" />
<glyph unicode="&#x2009;" horiz-adv-x="307" />
<glyph unicode="&#x200a;" horiz-adv-x="85" />
<glyph unicode="&#x2010;" horiz-adv-x="1024" d="M128 597v171h768v-171h-768z" />
<glyph unicode="&#x2011;" horiz-adv-x="1024" d="M128 597v171h768v-171h-768z" />
<glyph unicode="&#x2012;" horiz-adv-x="1024" d="M128 597v171h768v-171h-768z" />
<glyph unicode="&#x2013;" horiz-adv-x="1280" d="M128 597v171h1024v-171h-1024z" />
<glyph unicode="&#x2014;" horiz-adv-x="2304" d="M128 597v171h2048v-171h-2048z" />
<glyph unicode="&#x2018;" horiz-adv-x="563" d="M128 956v205l307 204v-68l-153 -136h153v-205h-307z" />
<glyph unicode="&#x2019;" horiz-adv-x="563" d="M128 956v68l154 137h-154v204h307v-204z" />
<glyph unicode="&#x201a;" horiz-adv-x="563" d="M128 0v205h307v-205l-307 -205v68l154 137h-154z" />
<glyph unicode="&#x201c;" horiz-adv-x="972" d="M128 956v205l307 204v-68l-153 -136h153v-205h-307zM538 956v205l307 204v-68l-154 -136h154v-205h-307z" />
<glyph unicode="&#x201d;" horiz-adv-x="972" d="M128 956v68l154 137h-154v204h307v-204zM538 956v68l153 137h-153v204h307v-204z" />
<glyph unicode="&#x201e;" horiz-adv-x="972" d="M128 0v205h307v-205l-307 -205v68l154 137h-154zM538 0v205h307v-205l-307 -205v68l153 137h-153z" />
<glyph unicode="&#x202f;" horiz-adv-x="307" />
<glyph unicode="&#x205f;" horiz-adv-x="384" />
<glyph unicode="&#xe000;" horiz-adv-x="1092" d="M0 0v1092h1092v-1092h-1092z" />
</font>
</defs>
</svg>
